<?xml version="1.0" encoding="UTF-8" standalone="no"?>
<!-- Created with Inkscape (http://www.inkscape.org/) -->

<svg
   xmlns:dc="http://purl.org/dc/elements/1.1/"
   xmlns:cc="http://creativecommons.org/ns#"
   xmlns:rdf="http://www.w3.org/1999/02/22-rdf-syntax-ns#"
   xmlns:svg="http://www.w3.org/2000/svg"
   xmlns="http://www.w3.org/2000/svg"
   version="1.2"
   width="163.86858"
   height="97.371178"
   id="svg3912">
  <defs
     id="defs3914" />
  <metadata
     id="metadata3917">
    <rdf:RDF>
      <cc:Work
         rdf:about="">
        <dc:format>image/svg+xml</dc:format>
        <dc:type
           rdf:resource="http://purl.org/dc/dcmitype/StillImage" />
        <dc:title></dc:title>
      </cc:Work>
    </rdf:RDF>
  </metadata>
  <rect
     width="3"
     height="83.843002"
     x="204.81348"
     y="0"
     id="use4432"
     style="fill:#686868;fill-opacity:1;fill-rule:evenodd;stroke:none" />
  <text
     x="204.52548"
     y="97.22718"
     id="text4440"
     xml:space="preserve"
     style="font-size:12px;font-style:normal;font-variant:normal;font-weight:normal;font-stretch:normal;line-height:125%;letter-spacing:0px;word-spacing:0px;fill:#000000;fill-opacity:1;stroke:none;font-family:Source Sans Pro;-inkscape-font-specification:Source Sans Pro"><tspan
       x="204.52548"
       y="97.22718"
       id="tspan4442">l</tspan></text>
  <path
     d="m 211.20814,78.286822 a 4.798225,5.0507633 0 0 1 -9.59645,0 4.798225,5.0507633 0 1 1 9.59645,0 z"
     id="use4446"
     style="fill:#000000;fill-opacity:1;fill-rule:evenodd;stroke:none" />
  <g
     transform="translate(64.837552,76.53379)"
     id="use4466">
    <rect
       width="3"
       height="83.843002"
       x="90.408653"
       y="44.73502"
       id="rect4494"
       style="fill:#686868;fill-opacity:1;fill-rule:evenodd;stroke:none" />
    <rect
       width="3"
       height="83.843002"
       x="139.97592"
       y="44.73502"
       id="rect4496"
       style="fill:#686868;fill-opacity:1;fill-rule:evenodd;stroke:none" />
    <text
       x="88.656654"
       y="141.9622"
       id="text4498"
       xml:space="preserve"
       style="font-size:12px;font-style:normal;font-variant:normal;font-weight:normal;font-stretch:normal;line-height:125%;letter-spacing:0px;word-spacing:0px;fill:#000000;fill-opacity:1;stroke:none;font-family:Source Sans Pro;-inkscape-font-specification:Source Sans Pro"><tspan
         x="88.656654"
         y="141.9622"
         id="tspan4500">o</tspan></text>
    <text
       x="139.68793"
       y="141.9622"
       id="text4502"
       xml:space="preserve"
       style="font-size:12px;font-style:normal;font-variant:normal;font-weight:normal;font-stretch:normal;line-height:125%;letter-spacing:0px;word-spacing:0px;fill:#000000;fill-opacity:1;stroke:none;font-family:Source Sans Pro;-inkscape-font-specification:Source Sans Pro"><tspan
         x="139.68793"
         y="141.9622"
         id="tspan4504">l</tspan></text>
    <path
       d="m 96.722106,74.281982 a 4.7982245,5.0507628 0 1 1 -9.596449,0 4.7982245,5.0507628 0 1 1 9.596449,0 z"
       transform="translate(-0.25253814,11.111678)"
       id="path4506"
       style="fill:#000000;fill-opacity:1;fill-rule:evenodd;stroke:none" />
    <path
       d="m 96.722106,74.281982 a 4.7982245,5.0507628 0 1 1 -9.596449,0 4.7982245,5.0507628 0 1 1 9.596449,0 z"
       transform="translate(49.648488,48.73986)"
       id="path4508"
       style="fill:#000000;fill-opacity:1;fill-rule:evenodd;stroke:none" />
    <text
       x="19.72971"
       y="90.856522"
       id="text4510"
       xml:space="preserve"
       style="font-size:12px;font-style:normal;font-variant:normal;font-weight:normal;font-stretch:normal;line-height:125%;letter-spacing:0px;word-spacing:0px;fill:#000000;fill-opacity:1;stroke:none;font-family:Source Sans Pro;-inkscape-font-specification:Source Sans Pro"><tspan
         x="19.72971"
         y="90.856522"
         id="tspan4512">backness</tspan></text>
  </g>
  <flowRoot
     transform="translate(85.551262,3.161621e-7)"
     id="flowRoot3008"
     xml:space="preserve"
     style="font-size:20px;font-style:normal;font-variant:normal;font-weight:normal;font-stretch:normal;line-height:125%;letter-spacing:0px;word-spacing:0px;fill:#000000;fill-opacity:1;stroke:none;font-family:Marion;-inkscape-font-specification:Marion"><flowRegion
       id="flowRegion3010"><rect
         width="25.993155"
         height="20.216898"
         x="-29.706463"
         y="30.944233"
         id="rect3012" /></flowRegion><flowPara
       id="flowPara3038">→→→→→→√√→→→v</flowPara><flowPara
       id="flowPara3040">→→→→→→→→→→</flowPara></flowRoot>  <g
     transform="translate(85.551262,3.161621e-7)"
     id="g3077">
    <rect
       width="3"
       height="83.843002"
       x="69.694946"
       y="-3.161621e-07"
       id="rect3922"
       style="fill:#686868;fill-opacity:1;fill-rule:evenodd;stroke:none" />
    <text
       x="63.520565"
       y="97.22718"
       id="text4436"
       xml:space="preserve"
       style="font-size:12px;font-style:normal;font-variant:normal;font-weight:normal;font-stretch:normal;line-height:125%;letter-spacing:0px;word-spacing:0px;fill:#000000;fill-opacity:1;stroke:none;font-family:Source Sans Pro;-inkscape-font-specification:Source Sans Pro"><tspan
         x="63.520565"
         y="97.22718"
         id="tspan4438">ow</tspan></text>
    <path
       d="m 75.755858,48.65864 a 4.7982245,5.0507628 0 0 1 -9.596449,0 4.7982245,5.0507628 0 1 1 9.596449,0 z"
       id="path4444"
       style="fill:#000000;fill-opacity:1;fill-rule:evenodd;stroke:none" />
    <text
       x="-0.98400038"
       y="46.121502"
       id="text4450"
       xml:space="preserve"
       style="font-size:12px;font-style:normal;font-variant:normal;font-weight:normal;font-stretch:normal;line-height:125%;letter-spacing:0px;word-spacing:0px;fill:#000000;fill-opacity:1;stroke:none;font-family:Source Sans Pro;-inkscape-font-specification:Source Sans Pro"><tspan
         x="-0.98400038"
         y="46.121502"
         id="tspan4452">backness</tspan></text>
    <text
       x="-86.231262"
       y="48.921501"
       id="text3004"
       xml:space="preserve"
       style="font-size:20px;font-style:normal;font-variant:normal;font-weight:normal;font-stretch:normal;line-height:125%;letter-spacing:0px;word-spacing:0px;fill:#000000;fill-opacity:1;stroke:none;font-family:Marion;-inkscape-font-specification:Marion"><tspan
         x="-86.231262"
         y="48.921501"
         id="tspan3042"
         style="font-style:normal;font-variant:normal;font-weight:normal;font-stretch:normal;font-family:Source Sans Pro;-inkscape-font-specification:Source Sans Pro">+back</tspan></text>
    <g
       transform="translate(0,1.6263319)"
       id="text3044"
       style="font-size:20px;font-style:normal;font-variant:normal;font-weight:normal;font-stretch:normal;line-height:125%;letter-spacing:0px;word-spacing:0px;fill:#000000;fill-opacity:1;stroke:none;font-family:Marion;-inkscape-font-specification:Marion">
      <path
         d="m -12.214869,36.784428 c 0.86587,0.944018 1.614567,1.663418 2.2460942,2.158203 0.6314924,0.488287 1.2271949,0.85287 1.7871094,1.09375 l 0,0.439453 c -0.6445498,0.312504 -1.2695492,0.712895 -1.8749996,1.201172 -0.605486,0.481774 -1.328141,1.191408 -2.167969,2.128906 l -0.751953,0 c 0.611964,-1.308591 1.253239,-2.314449 1.923828,-3.017578 0,0 -1.316039,-0.148834 -1.948129,0 -1.454367,0.342449 -2.670186,2.087183 -4.011494,2 -1.341308,-0.08718 -2.972152,-2 -2.972152,-2 0,0 -1.697808,-1.942647 -2.990387,-2 -1.292579,-0.05735 -3.65401,2 -3.65401,2 l 0,-0.986328 c 0,0 2.364034,-2.059066 3.65401,-2 1.289976,0.05907 2.972153,2 2.972153,2 0,0 1.69849,1.922499 3.045089,2 1.346599,0.0775 2.531862,-1.657403 3.975025,-2 0.625903,-0.148585 1.929895,0 1.929895,0 -0.494808,-0.631504 -0.839859,-1.100254 -1.035156,-1.40625 -0.195328,-0.305983 -0.485041,-0.843091 -0.869141,-1.611328 l 0.742187,0"
         id="path3052" />
    </g>
  </g>
</svg>
